Coordinates
version=1
nRows=16
nColumns=36
inDegrees=yes

Units are S.I. units (second, meters, Newtons, ...)
If the header above contains a line with 'inDegrees', this indicates whether rotational values are in degrees (yes) or radians (no).

endheader
time	pelvis_tilt	pelvis_list	pelvis_rotation	pelvis_tx	pelvis_ty	pelvis_tz	hip_flexion_r	hip_adduction_r	hip_rotation_r	knee_angle_r	knee_angle_r_beta	ankle_angle_r	subtalar_angle_r	mtp_angle_r	hip_flexion_l	hip_adduction_l	hip_rotation_l	knee_angle_l	knee_angle_l_beta	ankle_angle_l	subtalar_angle_l	mtp_angle_l	lumbar_extension	lumbar_bending	lumbar_rotation	arm_flex_r	arm_add_r	arm_rot_r	elbow_flex_r	pro_sup_r	arm_flex_l	arm_add_l	arm_rot_l	elbow_flex_l	pro_sup_l
      2.78333330	     -6.95156036	     -2.34749414	     15.48641020	     -0.40342142	      1.23319120	     -0.23453384	     34.42544079	     -8.28312605	    -11.04189889	     37.82694370	      0.66020471	     -2.72178494	      6.17200665	     -7.49999987	     29.40544212	    -11.32180889	     -6.87139882	     30.66154538	      0.53514492	     -6.16713883	     -1.72346510	     -7.49999987	     -0.89528071	      0.04290076	     -0.77323155	    -35.76306331	    -34.69029648	      9.77815332	     75.19667654	     72.45829310	    -51.01075397	    -32.46774979	     -1.23619139	     77.78763791	     76.35775253
      2.80000000	     -6.38843750	     -2.13172847	     15.37842763	     -0.36654806	      1.21572394	     -0.24134567	     33.15741685	     -8.32723259	    -12.63865023	     32.35831917	      0.56475921	     -7.75486221	      6.93629531	     -7.49999987	     28.73320091	    -10.94814761	     -7.89786815	     26.66645034	      0.46541736	    -10.40858886	     -2.98548476	     -7.49999987	     -1.69485441	     -0.27678332	     -0.35724513	    -40.53250434	    -34.44640454	      9.38940356	     73.59828265	     75.88263487	    -55.07102970	    -32.89903346	     -3.50821153	     77.63963315	     78.22694552
      2.81666670	     -5.71022807	     -1.85445328	     15.78235361	     -0.33558437	      1.17516232	     -0.25823305	     32.05027276	     -8.74249965	    -13.70290624	     28.09844322	      0.49041035	    -11.14570108	      7.34299581	     -7.49999987	     27.76117908	    -10.00480506	     -8.33667728	     23.54892787	      0.41100633	    -12.79969886	     -3.49910106	     -7.49999987	     -1.09494808	     -0.26822360	      0.16897986	    -47.70323253	    -33.01639641	      6.09359122	     73.13142708	     82.62778389	    -58.57505968	    -34.61276722	     -3.90757519	     77.22587047	     81.60388129
      2.83333330	     -5.43735821	     -1.57196318	     16.04303277	     -0.32741405	      1.15233798	     -0.25658154	     31.85426733	     -8.98915321	    -13.97269251	     24.87014979	      0.43406600	    -13.58449739	      7.59372183	     -7.49999987	     27.80061076	     -8.93125808	     -8.24799528	     21.12365730	      0.36867737	    -15.92141855	     -3.78691672	     -7.49999987	     -2.23495142	     -0.45941531	     -1.03221755	    -50.19988470	    -31.71891808	      5.59612609	     70.77619911	     83.41388866	    -59.27152803	    -33.12765063	     -4.68318120	     75.84718585	     82.42989689
      2.85000000	     -4.69630089	     -1.77460296	     16.46763551	     -0.31191714	      1.10809232	     -0.25660357	     32.64434536	     -8.73599572	    -13.51401933	     24.17396925	      0.42191536	    -14.09705249	      7.38363574	     -7.49999987	     29.31557314	     -8.79820949	     -7.58988983	     22.07752631	      0.38532552	    -17.46945302	     -5.15836957	     -7.49999987	     -3.84761421	      0.15418431	     -2.08956282	    -51.60041667	    -30.51577310	      5.65981498	     68.60156068	     83.08124506	    -59.06378195	    -32.25316001	     -4.85654390	     75.42999776	     82.26795881
      2.86666670	     -4.12411094	     -1.57866856	     15.95434422	     -0.29453268	      1.06862991	     -0.26683624	     33.83323657	     -8.70832615	    -12.14731854	     25.08553526	      0.43782518	    -13.00040808	      7.25935073	     -7.49999987	     29.50139299	     -8.72388778	     -5.17570298	     23.98083560	      0.41854454	    -14.07619932	     -5.46710087	     -7.49999987	     -4.93682989	      0.49025017	     -2.90939987	    -51.85223221	    -29.15967009	      4.77043652	     67.17999868	     82.21726781	    -58.06603693	    -30.05988730	     -4.79730402	     74.40623482	     81.77749746
      2.88333330	     -3.81726792	     -1.04842706	     15.82568891	     -0.26369858	      1.03591042	     -0.28466428	     34.42924193	     -8.98510066	    -10.33911176	     26.35504922	      0.45998238	    -14.03232129	      6.34681062	     -7.49999987	     30.08728581	     -7.64926463	     -5.14234120	     25.76630422	      0.44970684	    -13.02570582	     -5.31474887	     -7.49999987	     -5.76789823	      0.53127080	     -4.05595341	    -50.26307272	    -27.21365708	      3.32485660	     62.30957037	     81.22789311	    -54.84601013	    -26.25781164	     -4.91717701	     69.10257534	     81.27731391
      2.90000000	     -2.64052145	     -1.01325143	     16.13690845	     -0.24991516	      0.98982110	     -0.28915514	     35.78409433	     -8.87628674	     -8.56493732	     30.15689241	      0.52633706	    -11.91800236	      5.70589896	     -7.49999987	     32.28335163	     -7.31438354	     -4.22140384	     30.45695727	      0.53157418	    -10.65971581	     -5.85962298	     -7.49999987	     -7.69844864	      1.13446224	     -5.62153848	    -46.67133962	    -25.00113454	      1.25500919	     56.92803705	     79.50719441	    -49.22818365	    -22.69589555	     -4.73308959	     64.24044457	     80.42710000
      2.91666670	     -1.81471443	     -0.72983596	     15.97227194	     -0.24433561	      0.95137336	     -0.29392720	     38.52883863	     -8.76599150	     -6.04557060	     36.65149024	      0.63968918	     -6.50766304	      3.64302286	     -7.49999987	     34.94578322	     -7.11107477	     -4.25965007	     37.20287605	      0.64931268	     -6.46898479	     -7.25130694	     -7.49999987	    -10.31832047	      1.78121987	     -5.81144826	    -41.66077734	    -22.02091476	     -2.58435373	     53.02195922	     78.69851754	    -40.87288169	    -21.21074632	     -1.05573031	     58.91898187	     83.15691596
      2.93333330	     -1.20529400	     -0.69101240	     15.56866912	     -0.22994830	      0.91840406	     -0.29453797	     40.77930977	     -8.02324877	     -4.00116823	     43.79322276	      0.76433593	      1.04460656	      1.44997100	     -7.49999987	     36.89415846	     -7.50248213	     -4.32817877	     43.93060712	      0.76673374	     -0.23903179	     -8.55267551	     -7.49999987	    -11.60882576	      2.00335584	     -6.96078121	    -32.77759765	    -20.27394102	     -3.69224923	     46.90461275	     76.30646667	    -31.18305714	    -17.78491286	      0.06756061	     50.60483519	     80.56716320
      2.95000000	     -2.02013712	     -1.29453696	     15.57034155	     -0.21240427	      0.87735716	     -0.28934021	     45.38478204	     -6.77755174	     -2.02165798	     52.59676958	      0.91798681	      8.92140009	     -1.28736056	     -7.49999987	     41.71091444	     -8.42341023	     -3.80052637	     52.59216870	      0.91790650	      7.18825284	     -8.67124769	     -7.49999987	    -12.84569618	      2.16381319	     -6.05221257	    -23.44843061	    -18.27600177	     -1.13036411	     40.33481344	     74.54516212	    -21.90005020	    -16.94642286	      3.26676475	     43.14347489	     79.15547364
      2.96666670	     -2.30677687	     -1.52909643	     15.13547011	     -0.18462051	      0.85266250	     -0.29765137	     48.65042212	     -5.53369998	     -0.34349363	     60.43753722	      1.05483402	     15.25173969	     -3.76981919	     -7.49999987	     44.90899603	     -9.68227999	     -4.03271241	     60.45511576	      1.05514082	     14.96613152	     -7.18101616	     -7.49999987	    -14.51792181	      2.09419120	     -4.70193101	    -14.27997213	    -16.34192888	     -0.67468746	     36.31174493	     73.71098413	    -14.28572439	    -15.23695753	      3.52524367	     37.29301691	     78.34579128
      2.98333330	     -2.27714519	     -1.83637754	     15.22324815	     -0.19422405	      0.84478806	     -0.29965217	     50.64322571	     -4.82751443	      0.67563854	     65.49366055	      1.14308002	     18.53379788	     -5.57619877	     -7.49999987	     47.72264076	     -9.80415353	     -3.24968306	     66.07619951	      1.15324724	     18.80740035	     -7.00597775	     -7.49999987	    -21.64061983	      2.81666486	     -1.78001246	     -2.46624283	    -15.60901412	      2.75052425	     33.12389653	     64.85352398	     -2.31526018	    -14.12454858	      9.25041477	     33.10946683	     73.13494821
      3.00000000	     -3.13475215	     -2.39087348	     14.86597050	     -0.16964358	      0.81377891	     -0.30041855	     53.50016836	     -3.96842680	      1.17879181	     70.60810915	      1.23234398	     22.66886627	     -6.44899506	     -7.49999987	     50.56244399	    -10.44495081	     -2.08417234	     70.92677998	      1.23790584	     21.92527969	     -6.95113797	     -7.49999987	    -27.06615632	      2.42719861	      1.51673825	      7.59994770	    -15.54518333	      3.53016569	     36.73434808	     65.07684871	      5.03378171	    -13.13116822	      8.55328355	     35.06768349	     73.00657171
      3.01666670	     -6.09917831	     -3.37781930	     14.49593197	     -0.17146383	      0.79707219	     -0.29235973	     58.49153044	     -3.32782588	      1.43450314	     74.72446673	      1.30418798	     25.70551878	     -6.86651956	     -7.49999987	     55.54676977	    -10.83140871	     -0.76857927	     74.85551884	      1.30647527	     24.71622569	     -6.77058831	     -7.49999987	    -29.40974654	      2.44338592	      3.06749660	     16.98903627	    -17.55531095	      4.86328124	     44.62516247	     66.23516059	     12.22625126	    -13.41407045	      7.62446290	     39.76016404	     73.83533924
      3.03333330	    -11.81831352	     -5.15448323	     14.70098345	     -0.18992555	      0.76808508	     -0.27594805	     67.57309938	     -3.21444227	      1.04554601	     78.53593961	      1.37071073	     26.95261330	     -7.11336444	     -7.49999987	     65.31785527	    -10.63739565	      1.04320118	     78.44897192	      1.36919285	     25.19268481	     -8.15949725	     -7.49999987	    -27.07205535	      2.95624760	      4.14012682	     28.90753486	    -19.74230272	      4.88104429	     55.33154390	     81.48860382	     22.02737737	    -14.70107882	      6.84202909	     49.13503291	     90.40317514
